<?xml version="1.0" encoding="UTF-8"?><svg id="Layer_1" xmlns="http://www.w3.org/2000/svg" xmlns:xlink="http://www.w3.org/1999/xlink" viewBox="0 0 1923.75 758.62"><defs><linearGradient id="linear-gradient" x1="580.85" y1="201.73" x2="306.95" y2="591.94" gradientUnits="userSpaceOnUse"><stop offset="0" stop-color="#087c7c" stop-opacity=".39"/><stop offset="1" stop-color="#231f20"/></linearGradient></defs><path d="m393.36,191.06v.06c-.96-.06-1.85-.06-2.81-.06h2.81Z" fill="#fff"/><path d="m390.55,387.74c.96,0,1.85,0,2.81-.06v.06h-2.81Z" fill="#fff"/><path d="m393.36,191.06v.06c-.96-.06-1.85-.06-2.81-.06h2.81Z" fill="#38489f" opacity=".23"/><path d="m672.36,222.09c23.86,105.93-10.39,205.2-77.15,271.96-52.37,52.37-124.75,84.74-204.66,84.74h-48.46c-3.02,0-5.48-2.24-5.98-5.22-.69-4.12-2.21-8.15-4.63-11.87l-107.37-165.7c-2.93-4.52,1.11-10.04,6.4-9.03,2.58.5,5.24.75,7.97.75h163.64c7.47,0,14.5-1.97,20.51-5.39,10.9-3.76,20.96-9.38,29.73-16.52.11-.06.22-.17.28-.17,25.29-17.25,41.86-46.19,41.86-79.06,0-49.45-37.59-90.14-85.75-95.02-.06,0-.17-.06-.22,0-2.08-.34-4.21-.51-6.41-.51h-168.2c-20.57,0-37.24,16.67-37.24,37.24v117.63c0,5.9,1.24,11.52,3.43,16.58-1.06-.81-2.17-1.53-3.33-2.19-2.46-1.39-5.58-.79-7.45,1.32L10.59,562.83c-3.7,4.17-10.59,1.55-10.59-4.02V119.23C0,53.38,53.38,0,119.23,0h271.23c125.64,0,254.29,99.52,281.9,222.09Z" fill="#087c7c"/><path d="m671.57,218.95c-23.98,3.68-47.98,7.16-72.01,10.25-38.41,4.94-77.33,7.9-115.73,13.54,6.8,13.14,10.68,28.03,10.68,43.84,0,32.87-16.58,61.81-41.87,79.06-.05,0-.17.11-.28.17-8.77,7.14-18.83,12.76-29.73,16.52-6.01,3.43-13.04,5.39-20.51,5.39h-163.64c-2.73,0-5.39-.26-7.97-.75-5.29-1.02-9.33,4.51-6.4,9.03l107.37,165.7c2.41,3.72,3.93,7.75,4.62,11.87.5,2.98,2.96,5.22,5.98,5.22h48.46c79.91,0,152.29-32.37,204.66-84.74,66.76-66.76,101.01-166.03,77.16-271.96-.24-1.05-.54-2.09-.79-3.14Z" fill="url(#linear-gradient)" opacity=".74"/><path d="m393.36,191.06v.06c-.96-.06-1.85-.06-2.81-.06h2.81Z" fill="#38489f" opacity=".23"/><path d="m393.36,191.06v.06c-.96-.06-1.85-.06-2.81-.06h2.81Z" fill="#38489f"/><path d="m626.84,758.62h-159.26c-16.54,0-38.66-13.41-49.4-29.95l-223.85-344.7c-10.74-16.54-6.04-29.95,10.5-29.95h159.26c16.54,0,38.66,13.41,49.4,29.95l223.85,344.7c10.74,16.54,6.04,29.95-10.5,29.95Z" fill="#78c9c3"/><rect x="181.98" y="561.94" width="59.65" height="59.65" rx="10.19" ry="10.19" fill="#78c9c3"/><rect x="181.98" y="631.53" width="59.65" height="59.65" rx="10.19" ry="10.19" fill="#78c9c3"/><rect x="112.39" y="561.94" width="59.65" height="59.65" rx="10.19" ry="10.19" fill="#78c9c3"/><rect x="112.39" y="631.53" width="59.65" height="59.65" rx="10.19" ry="10.19" fill="#78c9c3"/><text transform="translate(810.21 380.84)" fill="#087c7c" font-family="Konnect-Black, Konnect" font-size="354.06" font-weight="800"><tspan x="0" y="0">Resido</tspan></text><text transform="translate(809.73 634.56) scale(.99 1)" fill="#087c7c" font-family="Konnect-Light, Konnect" font-size="233.67" font-weight="300"><tspan x="0" y="0">Real Estate</tspan></text></svg>