<?xml version="1.0" encoding="UTF-8"?><svg id="Layer_1" xmlns="http://www.w3.org/2000/svg" xmlns:xlink="http://www.w3.org/1999/xlink" viewBox="0 0 1330.02 1772.41"><defs><linearGradient id="linear-gradient" x1="1032.98" y1="260.11" x2="679.83" y2="763.23" gradientUnits="userSpaceOnUse"><stop offset="0" stop-color="#087c7c" stop-opacity=".39"/><stop offset="1" stop-color="#231f20"/></linearGradient></defs><path d="m791.24,246.35v.07c-1.23-.07-2.39-.07-3.62-.07h3.62Z" fill="#fff"/><path d="m787.62,499.94c1.23,0,2.39,0,3.62-.07v.07h-3.62Z" fill="#fff"/><path d="m791.24,246.35v.07c-1.23-.07-2.39-.07-3.62-.07h3.62Z" fill="#38489f" opacity=".23"/><path d="m1150.98,286.36c30.76,136.59-13.4,264.58-99.48,350.66-67.53,67.53-160.85,109.26-263.88,109.26h-62.48c-3.89,0-7.06-2.89-7.71-6.73-.89-5.31-2.85-10.5-5.96-15.3l-138.45-213.65c-3.78-5.83,1.43-12.95,8.25-11.64,3.33.64,6.76.97,10.28.97h210.99c9.64,0,18.69-2.54,26.45-6.96,14.06-4.85,27.03-12.1,38.33-21.3.15-.07.29-.22.36-.22,32.6-22.24,53.98-59.56,53.98-101.94,0-63.76-48.47-116.22-110.57-122.52-.07,0-.22-.07-.29,0-2.68-.43-5.43-.65-8.26-.65h-216.87c-26.52,0-48.02,21.5-48.02,48.02v151.66c0,7.61,1.59,14.85,4.42,21.37-1.36-1.04-2.8-1.98-4.29-2.82-3.17-1.79-7.19-1.02-9.61,1.7l-230.46,259.41c-4.77,5.37-13.66,2-13.66-5.19V153.73C284.05,68.83,352.88,0,437.79,0h349.71c162,0,327.88,128.32,363.48,286.36Z" fill="#087c7c"/><path d="m1149.96,282.31c-30.92,4.75-61.87,9.23-92.85,13.22-49.53,6.37-99.71,10.18-149.22,17.46,8.77,16.94,13.77,36.14,13.77,56.53,0,42.39-21.38,79.7-53.98,101.94-.07,0-.22.14-.36.22-11.3,9.2-24.27,16.45-38.33,21.3-7.75,4.42-16.81,6.96-26.45,6.96h-210.99c-3.52,0-6.96-.33-10.28-.97-6.82-1.31-12.03,5.81-8.25,11.64l138.45,213.65c3.11,4.8,5.07,9.99,5.96,15.3.64,3.84,3.81,6.73,7.71,6.73h62.48c103.03,0,196.35-41.73,263.88-109.26,86.08-86.08,130.25-214.07,99.48-350.66-.31-1.36-.7-2.69-1.02-4.05Z" fill="url(#linear-gradient)" opacity=".74"/><path d="m791.24,246.35v.07c-1.23-.07-2.39-.07-3.62-.07h3.62Z" fill="#38489f" opacity=".23"/><path d="m791.24,246.35v.07c-1.23-.07-2.39-.07-3.62-.07h3.62Z" fill="#38489f"/><path d="m1092.28,978.14h-205.34c-21.33,0-49.84-17.29-63.69-38.62l-288.62-444.44c-13.85-21.33-7.79-38.62,13.54-38.62h205.34c21.33,0,49.84,17.29,63.69,38.62l288.62,444.44c13.85,21.33,7.79,38.62-13.54,38.62Z" fill="#78c9c3"/><rect x="518.7" y="724.55" width="76.91" height="76.91" rx="13.14" ry="13.14" fill="#78c9c3"/><rect x="518.7" y="814.28" width="76.91" height="76.91" rx="13.14" ry="13.14" fill="#78c9c3"/><rect x="428.96" y="724.55" width="76.91" height="76.91" rx="13.14" ry="13.14" fill="#78c9c3"/><rect x="428.96" y="814.28" width="76.91" height="76.91" rx="13.14" ry="13.14" fill="#78c9c3"/><text transform="translate(0 1432.43)" fill="#087c7c" font-family="Konnect-Black, Konnect" font-size="422.9" font-weight="800"><tspan x="0" y="0">Resido</tspan></text><text transform="translate(8.99 1707.69)" fill="#087c7c" font-family="Konnect-Light, Konnect" font-size="252.95" font-weight="300"><tspan x="0" y="0">Real Estate</tspan></text></svg>