<?xml version="1.0" encoding="UTF-8"?><svg id="Layer_1" xmlns="http://www.w3.org/2000/svg" xmlns:xlink="http://www.w3.org/1999/xlink" viewBox="0 0 1558.51 1738.83"><defs><linearGradient id="linear-gradient" x1="1331.36" y1="462.39" x2="703.57" y2="1356.8" gradientUnits="userSpaceOnUse"><stop offset="0" stop-color="#087c7c" stop-opacity=".39"/><stop offset="1" stop-color="#231f20"/></linearGradient></defs><path d="m901.62,437.93v.13c-2.19-.13-4.25-.13-6.44-.13h6.44Z" fill="#fff"/><path d="m895.18,888.74c2.19,0,4.25,0,6.44-.13v.13h-6.44Z" fill="#fff"/><path d="m901.62,437.93v.13c-2.19-.13-4.25-.13-6.44-.13h6.44Z" fill="#38489f" opacity=".23"/><path d="m1541.12,509.06c54.69,242.81-23.82,470.35-176.85,623.37-120.04,120.04-285.94,194.23-469.1,194.23h-111.07c-6.92,0-12.56-5.13-13.7-11.96-1.58-9.44-5.07-18.67-10.6-27.2l-246.11-379.8c-6.71-10.36,2.55-23.02,14.67-20.69,5.91,1.14,12.02,1.72,18.28,1.72h375.07c17.13,0,33.23-4.51,47.01-12.37,24.99-8.63,48.04-21.51,68.14-37.87.26-.13.51-.39.64-.39,57.96-39.54,95.96-105.88,95.96-181.23,0-113.35-86.17-206.6-196.55-217.81-.13,0-.39-.13-.51,0-4.77-.77-9.66-1.16-14.68-1.16h-385.54c-47.15,0-85.37,38.22-85.37,85.37v269.61c0,13.52,2.83,26.4,7.86,38-2.43-1.85-4.98-3.51-7.63-5.01-5.63-3.18-12.78-1.81-17.08,3.03L24.27,1290.07c-8.48,9.55-24.27,3.55-24.27-9.23V273.29C0,122.36,122.36,0,273.29,0h621.69c287.98,0,582.87,228.12,646.15,509.06Z" fill="#087c7c"/><path d="m1539.31,501.87c-54.97,8.44-109.99,16.42-165.07,23.5-88.04,11.32-177.25,18.1-265.27,31.03,15.59,30.11,24.48,64.25,24.48,100.5,0,75.35-38,141.68-95.96,181.23-.13,0-.38.26-.64.39-20.09,16.36-43.15,29.24-68.14,37.87-13.78,7.86-29.88,12.37-47.01,12.37h-375.07c-6.26,0-12.36-.59-18.28-1.72-12.12-2.33-21.38,10.34-14.67,20.69l246.11,379.8c5.53,8.53,9.02,17.76,10.6,27.2,1.14,6.83,6.78,11.96,13.7,11.96h111.07c183.15,0,349.06-74.19,469.1-194.23,153.02-153.02,231.54-380.56,176.85-623.37-.55-2.41-1.24-4.79-1.82-7.2Z" fill="url(#linear-gradient)" opacity=".74"/><path d="m901.62,437.93v.13c-2.19-.13-4.25-.13-6.44-.13h6.44Z" fill="#38489f" opacity=".23"/><path d="m901.62,437.93v.13c-2.19-.13-4.25-.13-6.44-.13h6.44Z" fill="#38489f"/><path d="m1436.78,1738.83h-365.03c-37.91,0-88.61-30.74-113.23-68.65L445.43,880.1c-24.62-37.91-13.85-68.65,24.07-68.65h365.03c37.91,0,88.61,30.74,113.23,68.65l513.08,790.08c24.62,37.91,13.85,68.65-24.07,68.65Z" fill="#78c9c3"/><rect x="417.12" y="1288.02" width="136.73" height="136.73" rx="23.35" ry="23.35" fill="#78c9c3"/><rect x="417.12" y="1447.54" width="136.73" height="136.73" rx="23.35" ry="23.35" fill="#78c9c3"/><rect x="257.6" y="1288.02" width="136.73" height="136.73" rx="23.35" ry="23.35" fill="#78c9c3"/><rect x="257.6" y="1447.54" width="136.73" height="136.73" rx="23.35" ry="23.35" fill="#78c9c3"/></svg>