<?xml version="1.0" encoding="UTF-8"?><svg id="Layer_1" xmlns="http://www.w3.org/2000/svg" xmlns:xlink="http://www.w3.org/1999/xlink" viewBox="0 0 1578.06 1760.65"><defs><linearGradient id="linear-gradient" x1="1143.56" y1="478.55" x2="887.81" y2="1433.05" gradientUnits="userSpaceOnUse"><stop offset="0" stop-color="#fff" stop-opacity=".6"/><stop offset="1" stop-color="#231f20" stop-opacity=".7"/></linearGradient></defs><path d="m912.93,443.42v.13c-2.22-.13-4.3-.13-6.52-.13h6.52Z" fill="#fff"/><path d="m906.41,899.89c2.22,0,4.3,0,6.52-.13v.13h-6.52Z" fill="#fff"/><path d="m912.93,443.42v.13c-2.22-.13-4.3-.13-6.52-.13h6.52Z" fill="#fff" opacity=".23"/><path d="m1560.46,515.45c55.38,245.86-24.12,476.25-179.07,631.19-121.55,121.55-289.53,196.67-474.98,196.67h-112.46c-7.01,0-12.71-5.19-13.87-12.11-1.6-9.56-5.13-18.9-10.74-27.54l-249.2-384.57c-6.8-10.49,2.58-23.31,14.85-20.95,5.99,1.15,12.17,1.75,18.51,1.75h379.78c17.35,0,33.65-4.57,47.6-12.52,25.3-8.74,48.65-21.78,68.99-38.34.26-.13.52-.39.65-.39,58.69-40.04,97.16-107.2,97.16-183.5,0-114.77-87.25-209.19-199.02-220.54-.13,0-.39-.13-.52,0-4.83-.78-9.78-1.17-14.87-1.17h-390.37c-47.74,0-86.44,38.7-86.44,86.44v273c0,13.69,2.87,26.74,7.96,38.47-2.46-1.87-5.04-3.56-7.72-5.07-5.7-3.22-12.94-1.83-17.29,3.07L24.58,1306.25c-8.59,9.67-24.58,3.59-24.58-9.34V276.72C0,123.89,123.89,0,276.72,0h629.49c291.59,0,590.18,230.98,654.26,515.45Z" fill="#fff"/><path d="m1558.62,508.16c-55.66,8.54-111.37,16.62-167.14,23.79-89.15,11.46-179.48,18.33-268.59,31.42,15.79,30.49,24.79,65.06,24.79,101.76,0,76.29-38.48,143.46-97.16,183.5-.13,0-.39.26-.65.39-20.35,16.56-43.69,29.61-68.99,38.34-13.95,7.96-30.25,12.52-47.6,12.52h-379.78c-6.34,0-12.52-.6-18.51-1.75-12.27-2.36-21.65,10.47-14.85,20.95l249.2,384.57c5.6,8.64,9.13,17.98,10.73,27.54,1.16,6.91,6.86,12.11,13.88,12.11h112.46c185.45,0,353.44-75.12,474.98-196.67,154.94-154.94,234.44-385.33,179.07-631.19-.55-2.44-1.25-4.85-1.84-7.29Z" fill="url(#linear-gradient)" opacity=".36"/><path d="m912.93,443.42v.13c-2.22-.13-4.3-.13-6.52-.13h6.52Z" fill="#fff" opacity=".23"/><path d="m912.93,443.42v.13c-2.22-.13-4.3-.13-6.52-.13h6.52Z" fill="#fff"/><path d="m1454.8,1760.65h-369.61c-38.39,0-89.72-31.12-114.65-69.51L451.02,891.15c-24.93-38.39-14.02-69.51,24.37-69.51h369.61c38.39,0,89.72,31.12,114.65,69.51l519.52,799.99c24.93,38.39,14.02,69.51-24.37,69.51Z" fill="#fff"/><rect x="422.36" y="1304.19" width="138.44" height="138.44" rx="23.64" ry="23.64" fill="#fff"/><rect x="422.36" y="1465.7" width="138.44" height="138.44" rx="23.64" ry="23.64" fill="#fff"/><rect x="260.84" y="1304.19" width="138.44" height="138.44" rx="23.64" ry="23.64" fill="#fff"/><rect x="260.84" y="1465.7" width="138.44" height="138.44" rx="23.64" ry="23.64" fill="#fff"/></svg>